<?xml version="1.0" encoding="utf-8"?>
<!-- Generator: Adobe Illustrator 23.0.5, SVG Export Plug-In . SVG Version: 6.00 Build 0)  -->
<svg version="1.1" xmlns="http://www.w3.org/2000/svg" xmlns:xlink="http://www.w3.org/1999/xlink" x="0px" y="0px"
	 viewBox="0 0 174.2 133.7" style="enable-background:new 0 0 174.2 133.7;" xml:space="preserve">
<style type="text/css">
	.st0{fill:url(#SVGID_1_);}
	.st1{fill:url(#SVGID_2_);}
	.st2{fill:url(#SVGID_3_);}
	.st3{fill:url(#SVGID_4_);}
	.st4{fill:url(#SVGID_5_);}
	.st5{fill:#4A2F27;}
	.st6{fill:#BDBDBD;}
	.st7{fill:#646464;}
	.st8{fill:#325599;}
	.st9{fill:url(#SVGID_6_);}
	.st10{fill:#E0E0E0;}
	.st11{fill:#7C7C7C;}
	.st12{fill:#4568AD;}
	.st13{fill:url(#SVGID_7_);}
	.st14{fill:url(#SVGID_8_);}
	.st15{fill:#ED6D23;}
	.st16{fill:#70534A;}
	.st17{fill:#1A1717;}
	.st18{fill:#232020;}
	.st19{fill:url(#SVGID_9_);}
	.st20{fill:url(#SVGID_10_);}
	.st21{fill:url(#SVGID_11_);}
	.st22{fill:url(#SVGID_12_);}
	.st23{fill:url(#SVGID_13_);}
	.st24{fill:url(#SVGID_14_);}

	g#Pelota{animation: corte .5s linear 0s infinite alternate;}

@keyframes corte {
	from{transform: rotate(-8deg); transform-origin: 275px 285px;}
	to{transform: rotate(1deg); transform-origin: 265px 285px;}
	
</style>
<g id="Capa_2">
	<g id="Pelota">
		
			<radialGradient id="SVGID_1_" cx="57.6776" cy="61.1406" r="12.764" gradientTransform="matrix(1 0 0 -1 0 144.2472)" gradientUnits="userSpaceOnUse">
			<stop  offset="1.700000e-02" style="stop-color:#FB8C00"/>
			<stop  offset="0.442" style="stop-color:#F47900"/>
			<stop  offset="0.838" style="stop-color:#D95A1E"/>
		</radialGradient>
		<path class="st0" d="M73.7,87.1c0,6.3-5.3,11.5-11.8,11.5s-11.8-5.1-11.8-11.5s5.3-11.5,11.8-11.5C68.4,75.6,73.7,80.7,73.7,87.1z
			"/>
		
			<radialGradient id="SVGID_2_" cx="55.3926" cy="450.8016" r="21.549" gradientTransform="matrix(1 0 0 1 0 -372)" gradientUnits="userSpaceOnUse">
			<stop  offset="1.700000e-02" style="stop-color:#FFA726"/>
			<stop  offset="0.494" style="stop-color:#FC950D"/>
			<stop  offset="0.838" style="stop-color:#FB8C00"/>
		</radialGradient>
		<path class="st1" d="M62.2,98.6c-0.1,0-0.2,0-0.3,0c-1.2,0-2.3-0.2-3.3-0.5h0c-1.4-2-4.1-6.5-3.9-12.5c0-0.5,0-0.9,0.1-1.4
			c0-0.6,0.1-1.2,0.3-1.9c0.1-0.4,0.2-0.8,0.3-1.2l0-0.1c0.1-0.5,0.3-0.9,0.4-1.3h0c0.1-0.3,0.3-0.7,0.5-0.9h0
			c0.8-1.4,1.8-2.3,2.6-2.8c0.9-0.3,1.9-0.4,2.9-0.4c-1,0.4-2.8,1.2-4,3.2c-0.2,0.3-0.4,0.7-0.5,1h0c-0.2,0.3-0.3,0.7-0.4,1.1
			c-0.1,0.4-0.2,0.8-0.3,1.2c-0.1,0.6-0.2,1.2-0.2,1.8c0,0.5,0,1,0,1.4C56.5,91.7,60.4,96.6,62.2,98.6z"/>
		
			<radialGradient id="SVGID_3_" cx="55.3926" cy="450.8016" r="21.549" gradientTransform="matrix(1 0 0 1 0 -372)" gradientUnits="userSpaceOnUse">
			<stop  offset="1.700000e-02" style="stop-color:#FFA726"/>
			<stop  offset="0.494" style="stop-color:#FC950D"/>
			<stop  offset="0.838" style="stop-color:#FB8C00"/>
		</radialGradient>
		<path class="st2" d="M67.8,77.2c-3.4-0.1-6.3,2.4-10.7,2.7h0c-0.2,0-0.4,0-0.7,0c-0.3,0-0.5,0-0.8-0.1h0c-1.1-0.2-1.5-0.9-1.6-1.3
			c0.3-0.3,0.6-0.5,0.9-0.7c0,0.4,0.1,0.9,1.1,1.1h0c0.2,0,0.5,0,0.7,0c0.2,0,0.5,0,0.8-0.1c2.5-0.4,5.9-2.1,7-2.4
			c0.3-0.1,0.6-0.2,0.9-0.2C66.4,76.4,67.1,76.7,67.8,77.2z"/>
		
			<radialGradient id="SVGID_4_" cx="55.3926" cy="450.8016" r="21.549" gradientTransform="matrix(1 0 0 1 0 -372)" gradientUnits="userSpaceOnUse">
			<stop  offset="1.700000e-02" style="stop-color:#FFA726"/>
			<stop  offset="0.494" style="stop-color:#FC950D"/>
			<stop  offset="0.838" style="stop-color:#FB8C00"/>
		</radialGradient>
		<path class="st3" d="M71.2,94.2c-0.5,0.7-1.1,1.3-1.8,1.8c-0.9-1.7-2.7-4.3-6-7.4c-1.9-1.8-4.4-3.2-7.1-3.2c-0.3,0-0.6,0-0.9,0
			c-0.3,0-0.5,0.1-0.7,0.2c-2.6,0.8-3.3,4.3-3.4,6.5c-0.5-1-0.9-2.1-1.1-3.3c0.6-1.7,2-4.1,4.5-4.7c0.2-0.1,0.4-0.1,0.7-0.1
			c0.3,0,0.6-0.1,0.9-0.1c3.5-0.1,6,1.6,8.5,3.4C68.1,89.8,70.2,92.7,71.2,94.2z"/>
		
			<radialGradient id="SVGID_5_" cx="55.3926" cy="450.8016" r="21.549" gradientTransform="matrix(1 0 0 1 0 -372)" gradientUnits="userSpaceOnUse">
			<stop  offset="1.700000e-02" style="stop-color:#FFA726"/>
			<stop  offset="0.494" style="stop-color:#FC950D"/>
			<stop  offset="0.838" style="stop-color:#FB8C00"/>
		</radialGradient>
		<path class="st4" d="M73.7,86.9v0.2c0,0.9-0.1,1.8-0.3,2.6c-3.1-2.9-9.5-7.8-17-7.6c-0.5,0-1,0.1-1.5,0.1
			c-2.3,0.3-3.7,1.2-4.5,1.9c0.2-0.7,0.4-1.3,0.7-2c1-0.5,2.3-1,4.1-1.2c0.2,0,0.4,0,0.6-0.1l0.9-0.1C65,80.5,71.2,84.9,73.7,86.9z"
			/>
	</g>
</g>
<g id="Capa_4">
	<g id="pierna2">
		<path class="st5" d="M124.3,88.7l-14.7-21.7L98.8,75l17.4,22.1h0c0.9,1.3,2.3,2.1,3.8,2.3l0,0.1l26.8,3.4l1.6-8.8
			C148.5,94,124.3,88.7,124.3,88.7z"/>
		<path class="st6" d="M140.9,92.4l-1.8,9.4l7.7,1l1.6-8.8L140.9,92.4z"/>
		<path class="st7" d="M110.6,66.2c-1.5-2.1-3.9-3.3-6.4-3.3c-1.6,0-3.3,0.5-4.7,1.5c-3.6,2.6-4.3,7.6-1.7,11.1l9,11.7l12.3-9
			L110.6,66.2z"/>
		<path class="st8" d="M154.6,93.6l-2.8-0.5c-0.2,0-0.4-0.1-0.6-0.1c-1.8,0-3.8,1.2-3.8,1.2l-1.5,7.8l1,5.8c0.3,1.6,1.6,2.9,3.2,3.2
			l1.2,0.2c0.1,0,0.1,0,0.2,0c0.5,0,0.9-0.3,1-0.8l2.9-15.5C155.7,94.3,155.3,93.7,154.6,93.6z"/>
	</g>
</g>
<g id="Capa_3">
	<g id="pierna1">
		
			<linearGradient id="SVGID_6_" gradientUnits="userSpaceOnUse" x1="97.5413" y1="454.3256" x2="92.0523" y2="486.5116" gradientTransform="matrix(1 0 0 1 0 -372)">
			<stop  offset="0" style="stop-color:#5C4037"/>
			<stop  offset="1" style="stop-color:#70534A"/>
		</linearGradient>
		<path class="st9" d="M98.9,67.6L86.2,88.7c-1.9,3.2-2.8,7-2.3,10.8l2.7,24.8l7.6,0l0.9-27.5l15.1-22
			C110.2,74.8,98.9,67.6,98.9,67.6z"/>
		<path class="st10" d="M85.6,114.3l0.8,8.4l7.9,0l0.4-8.4L85.6,114.3z"/>
		<path class="st11" d="M108.9,64.4c-1.3-0.8-2.8-1.2-4.3-1.2c-2.6,0-5.2,1.3-6.7,3.7l-7.6,12.6l12.8,8.2l8.2-12.2
			C113.7,71.7,112.6,66.7,108.9,64.4z"/>
		<path class="st12" d="M94.3,121.9h-7.9l-5.5,2.1c-1.5,0.6-2.6,2.1-2.6,3.7l0,1.3c0,0.6,0.5,1,1,1l15.8,0c0.6,0,1.2-0.5,1.2-1.2
			V126C96.3,124.1,94.3,121.9,94.3,121.9z"/>
	</g>
</g>
<g id="Capa_1">
	<g id="superior">
		<path class="st5" d="M76,68l-0.4-1.3c-0.1-0.2-0.3-0.4-0.6-0.4c-3.6,0.5-12.1,1.7-12.9,2.4c-0.4,0.4-0.6,0.9-0.4,1.4
			c0.2,0.6,0.7,1,1.3,1.1c0.4,0.1,0.8,0.1,1.2,0.1c0,0.2,0,0.4,0,0.6c0.1,0.4,0.4,0.7,0.8,0.7c0.2,0,0.3,0.1,0.5,0.1
			c3,0,9.3-3.6,10.1-4.1C75.9,68.4,76,68.2,76,68z"/>
		
			<linearGradient id="SVGID_7_" gradientUnits="userSpaceOnUse" x1="76.5479" y1="441.5725" x2="62.5949" y2="442.4565" gradientTransform="matrix(1 0 0 1 0 -372)">
			<stop  offset="0" style="stop-color:#70534A"/>
			<stop  offset="1" style="stop-color:#5C4037"/>
		</linearGradient>
		<path class="st13" d="M75.1,66.6c-1.3-1.5-2.2-1.4-3.5-1.1c-0.3,0.1-0.6,0.2-1,0.2c-1,0.3-2.2,0.6-4.1,0.8
			c-2.6,0.3-5.7,0.2-5.7,0.2c0,0-0.1,0-0.1,0c-0.6,0.1-1,0.5-1.1,1c-0.1,0.5,0,1,0.3,1.3c1,1,4.5,1.2,6.6,1.1c0.6,0,1.7-0.1,2.5-0.1
			c0.1,0,0.2,0.1,0.2,0.1c0,0.1,0,0.2,0,0.3c-0.4,0.4-0.9,0.9-1.5,1.2c-0.8,0.4-1.1,0.9-1.1,1.4c0,0.5,0.4,1,1.2,1.3
			c0.2,0.1,0.5,0.1,0.8,0.1c1.8,0,4.4-1.7,5.3-2.6C74.9,70.8,76.3,68.1,75.1,66.6z"/>
		
			<linearGradient id="SVGID_8_" gradientUnits="userSpaceOnUse" x1="70.9387" y1="441.5708" x2="85.8687" y2="430.1288" gradientTransform="matrix(1 0 0 1 0 -372)">
			<stop  offset="0" style="stop-color:#70534A"/>
			<stop  offset="1" style="stop-color:#5C4037"/>
		</linearGradient>
		<path class="st14" d="M87.2,48.9l-6.3,11.8c0,0,0,0,0,0l-10.7,5.7c-1.8,0.9,0,5.6,1.9,5.6c0.2,0,0.3,0,0.5-0.1l12.3-4.9l0,0
			c0.8-0.3,1.4-0.9,1.8-1.6l0,0l7.1-13.1C93.7,52.4,87.2,48.9,87.2,48.9z"/>
		<path class="st15" d="M93.9,45l-1.1-0.5c-0.7-0.4-1.5-0.6-2.3-0.6c-1.9,0-3.7,1-4.6,2.8L81,56.4l10.3,5.2l4.9-9.7
			C97.4,49.4,96.4,46.3,93.9,45z"/>
		<path class="st16" d="M98.7,18.3c-2.7-3.9-8.5-6.8-13.2-5.8c-5.2,1.1-7.9,5.1-8.4,9.9c-0.2,1.8-0.1,3.5,0.3,4.7
			c0,0.1,0.4,1.2,0.4,1.5c0.3,1.3-2.2,2.7-2.4,4.1c-0.2,1.1,2.1,1.7,2.3,1.9c0.9,0.9-0.2,5.6,6,5.8c2.4,0.1,1.9-0.1,2.6,0.2
			c1.1,0.4,2.5,3.6,2.5,3.6s-0.5,4.4,3.5,3c4.6-1.7,5.6-5.8,5.6-5.8s-3-3.7-0.4-8.6C99.6,28.8,100.5,20.8,98.7,18.3z"/>
		<path class="st17" d="M78.5,37.2c0.9,0,1.7-0.2,2.4-0.8c0.8-0.6,0.2-1.3-0.7-0.8c-0.5,0.3-1.3,0.4-2,0.3L78.5,37.2z"/>
		
			<ellipse transform="matrix(0.9968 -8.039029e-02 8.039029e-02 0.9968 -2.0832 6.6648)" class="st17" cx="81.7" cy="29.2" rx="1.1" ry="1.7"/>
		<path class="st17" d="M80.7,26.7c-1.1,0.3-1.4-0.4-1-1c0.3-0.4,0.9-0.8,2.2-0.5c1.2,0.3,1.7,1,2,1.4c0.3,0.4,0.3,0.9,0,0.9
			C83.6,27.5,82.1,26.3,80.7,26.7z"/>
		<path class="st18" d="M102.2,18.3c-1.5-3.2-4.2-4.1-5.1-4.3c-0.5-1.2-2.8-5.6-10.2-4c-1.8,0.4-3.1,1.3-4.3,2.1
			c-0.5,0.4-1,0.7-1.4,0.9c-0.4,0.2-1,0.4-1.5,0.2c-1.2-0.3-0.9-2.2-0.9-2.2s-4.4,1.1-2.3,5.3c-1.5,0.7-2.1,2.4-2.3,3.8
			c-0.3,2,0.8,3.9,2.8,4.7c0,0-0.6-3.2,4.2-3.3c1.5,0,3,0.1,4.3-0.5c0.5-0.2,1-0.6,1.5-0.9c0.1,0,0.2,0,0.2,0
			c1.8,0.9-0.3,5.2,1.8,7.5c0.4,0.5,0.7,0.3,0.7,0.3l0.7-1.2c0.6-0.8,1.1-1.5,1.8-1.4c2.2,0.4,2,4.4-0.5,5.4c-0.3,0.1,0.6,4.5,6,4.2
			c2.8-0.1,3.7-2.5,3.7-2.5s-1.2,0.4-1.5-0.6c-0.2-0.5,0.3-1.3,1.1-2.1c2.4-2.4,1.4-4.9,1-5.7C102.4,23.3,103.4,20.9,102.2,18.3
			L102.2,18.3z"/>
		
			<radialGradient id="SVGID_9_" cx="142.7006" cy="301.5976" r="7.122" gradientTransform="matrix(0.954 0.2999 -0.4319 1.3738 89.6848 -427.5025)" gradientUnits="userSpaceOnUse">
			<stop  offset="0.45" style="stop-color:#444140;stop-opacity:0"/>
			<stop  offset="1" style="stop-color:#444140"/>
		</radialGradient>
		<path class="st19" d="M102.1,24.1c0-0.1-0.7,2-4.3,1.9c-1.5,0.1-3.4,3.7-1.1,6c2,2,4.8,0.6,4.8,0.6s-0.4,0.1-1,0
			c-0.4-0.1-0.5-0.6-0.5-0.6c-0.2-0.5,0.3-1.3,1.1-2.1C103.5,27.4,102.5,24.9,102.1,24.1z"/>
		
			<radialGradient id="SVGID_10_" cx="59.6483" cy="381.3283" r="7.219" gradientTransform="matrix(0.9831 -0.1828 0.2307 1.2406 -50.5684 -439.7562)" gradientUnits="userSpaceOnUse">
			<stop  offset="0.45" style="stop-color:#444140;stop-opacity:0"/>
			<stop  offset="1" style="stop-color:#444140"/>
		</radialGradient>
		<path class="st20" d="M102.2,18.3c-0.8-1.7-2.1-3.1-3.8-3.9c-0.3-0.1-0.9-0.4-1.3-0.4c0.2,0.8,0.3,1.6,0,2.5c0,0-0.3,1.3-1.4,2.4
			c0.8,1.1,1.3,2.4,1.8,3.7c0.4,1.1,0.8,2.4,0.3,3.5c0.7-0.1,1.8,0.1,3-0.5c1.1-0.6,1.7-1.9,1.9-3.1C102.9,21,102.8,19.6,102.2,18.3
			z"/>
		
			<radialGradient id="SVGID_11_" cx="47.4094" cy="498.5892" r="14.858" gradientTransform="matrix(0.9795 -0.2016 0.1516 0.7362 -34.1395 -337.1793)" gradientUnits="userSpaceOnUse">
			<stop  offset="0.45" style="stop-color:#444140;stop-opacity:0"/>
			<stop  offset="1" style="stop-color:#444140"/>
		</radialGradient>
		<path class="st21" d="M97.1,16.5c0.8-2.3-0.6-4.3-2.5-5.6c-2.3-1.5-5.1-1.5-7.7-0.9c-1.8,0.4-3.1,1.3-4.3,2.1
			c-0.5,0.4-0.9,0.7-1.4,0.9c-0.4,0.2-1,0.4-1.5,0.2c-1.2-0.3-0.9-2.2-0.9-2.2s-4.4,1.1-2.3,5.3c-1.4,0.7-2.1,2.4-2.3,3.8
			c-0.3,2,0.8,3.9,2.8,4.7c0,0-0.5-3.2,4.2-3.3c1.5,0,3,0.1,4.3-0.5c1.2-0.5,1.5-1.2,2.9-1.2c1.4,0,3.4,0.5,4.9,0.2
			C96.3,19.6,97.1,16.5,97.1,16.5z"/>
		
			<radialGradient id="SVGID_12_" cx="130.4188" cy="443.3564" r="7.999" gradientTransform="matrix(0.9801 0.1985 -0.1276 0.6301 25.9872 -274.8282)" gradientUnits="userSpaceOnUse">
			<stop  offset="0.45" style="stop-color:#444140;stop-opacity:0"/>
			<stop  offset="1" style="stop-color:#444140"/>
		</radialGradient>
		<path class="st22" d="M96.7,32c-1-1-1.4-2.7-2.9-3.5c-0.2,1-0.9,2-2,2.4c-0.3,0.1,0.6,4.5,6,4.2c2.8-0.1,3.7-2.5,3.7-2.5
			S98.8,33.9,96.7,32z"/>
		
			<radialGradient id="SVGID_13_" cx="95.9156" cy="424.4176" r="15.246" gradientTransform="matrix(1 0 0 1 0 -372)" gradientUnits="userSpaceOnUse">
			<stop  offset="0.367" style="stop-color:#F78C1F"/>
			<stop  offset="0.68" style="stop-color:#F37F21"/>
			<stop  offset="1" style="stop-color:#ED6D23"/>
		</radialGradient>
		<path class="st23" d="M112.5,67.5c-1.9-7.9-5.4-15.7-8.9-23.6c-1.2-3-4.2-4.7-7.2-4.7c-0.9,0-1.7,0.1-2.5,0.4
			c-5,1.8-7.5,6.4-6,11.9c2.3,8.1,3.4,12.9,4.3,20.9c0.1,1,1,1.8,2,1.8c0.2,0,0.4,0,0.5-0.1c5.2-1.4,11-2.8,16.3-4.2
			C112.1,69.6,112.8,68.5,112.5,67.5z"/>
		
			<linearGradient id="SVGID_14_" gradientUnits="userSpaceOnUse" x1="101.1186" y1="429.1667" x2="135.279" y2="429.1667" gradientTransform="matrix(1 0 0 1 0 -372)">
			<stop  offset="7.000001e-03" style="stop-color:#5C4037"/>
			<stop  offset="1" style="stop-color:#70534A"/>
		</linearGradient>
		<path class="st24" d="M135,66c-0.3-0.8-0.8-1.6-1.4-2.6c-0.5-0.8-4-4.8-5.4-5.5c-0.9-1.5-5.7-7.5-7.9-10.2c-0.5-0.6-1.2-1.1-2-1.4
			l-14.3-4.5c-0.3-0.1-0.5,0.1-0.6,0.3c0,0,0,0,0,0l-2.2,7.1c-0.1,0.3,0.1,0.5,0.3,0.6l13.1,4c2.1,2,7.2,6.9,7.9,7.6
			c0.3,1.2,0.3,2.6,0.2,4c-0.1,1.4-0.1,2.5,0.3,3.2c0.4,0.6,0.9,0.6,1.2,0.6c0.7-0.1,1.2-0.7,1.4-1.3c0.3-0.7,0.3-1.4,0.3-1.9v-0.3
			c0.6,0.4,0.8,2.1,1,3.4c0.2,1.7,0.4,3.2,1.5,3.3c0.1,0,0.1,0,0.2,0c0.2,0,0.4-0.1,0.6-0.2c0.5-0.5,0.6-1.7,0.5-2.7
			c0.1,0.3,0.1,0.6,0.1,0.9c0.1,0.8,0.1,1.8,1.2,1.8c0.3,0,0.6-0.1,0.7-0.3c0.3-0.4,0.4-1,0.3-1.7c0.3,0.5,0.6,0.8,1.1,0.7
			c0.2-0.1,0.4-0.2,0.6-0.6c0.2-0.3,0.2-0.8,0.2-1.3c0.1,0.1,0.1,0.1,0.2,0.1c0.1,0,0.3,0.1,0.4,0c0.2-0.1,0.5-0.2,0.7-0.6
			C135.4,68,135.3,67,135,66z"/>
		<path class="st15" d="M100.7,39.3c-0.5-0.1-1-0.2-1.4-0.2c-2.3,0-4.3,1.5-5,3.7l-0.4,1.2c-0.8,2.7,0.8,5.6,3.5,6.4l10.5,3
			l3.2-11.2C111.2,42.4,100.7,39.3,100.7,39.3z"/>
	</g>
</g>
</svg>
